<?xml version="1.0" encoding="UTF-8"?>
<svg version="1.1" viewBox="0 0 2048 2048" width="128" height="128" xmlns="http://www.w3.org/2000/svg">
<path transform="translate(177,458)" d="m0 0h226l1 1v106l-1 1h-113v2l114 2v107l-1 1h-115l1 2 70 1h39l6 1v71l-1 38h-115v1l116 1v40l-1 69 1 88 1-89v-71l1-37h111v18l-1 35-1 59 4-1-1-10v-44l1-51 2-6h106l1 3-1 70-1 38-1 1 7 1-1-3-1-34v-27l1-48 1-1h219l1 1-1 572h-93l-128-1-1-1v-13l1-29 1-48 1-16 1-4h-96l87 2 4 1 1 5-2 100-1 1h-108l-3-1-2-9v-20l2-77 1-4 3-104 1-5h-5l2 4-1 72-1 30-1 1h-103l-9-1-1-2v-68l1-44-1 1h-111l-2-2-1-23v-188l1-15-3 1-84 1h-23l-2-1-1-6-1-19v-378l1-46zm439 447m-214 88m0 2v131h1l1-19v-84l-1-28zm0 132 1 2z" fill="#FD0F18"/>
<path transform="translate(1628,458)" d="m0 0h202l40 1 2 2v445l-2 2-112 1 1 7v30l-1 187-1 1-14 1h-101l2 4 1 28v80l-2 1-30 1h-75l-9-1-1-10-2-53v-41-3l-1-16v-220l2-3h107l3 1v-2l-1-2v2h-110l-1-18 1-90 111-1 1 9 1-8 1-1h114v-3l-38 1-188 1-2-1v-107l1-1 145-1h82l-1-3h-227v-106l1-2h228v-4h-228l-1-1v-54l1-43 2-9zm8 374v32h1v-32zm0 33m0 3v13h1v-13zm0 14 1 2zm4 20m4 0m3 0v1h32v-1zm33 1v1h22v-1zm26 1v1h15v-1zm19 1v1h10v-1zm-188 237v1h33v-1z" fill="#FD0F18"/>
<path transform="translate(1628,458)" d="m0 0h202l40 1 2 2v445l-2 2h-110l-3-1-2-43-1-186h-228v-106l1-2h228v-4h-228l-1-1v-54l1-43 2-9z" fill="#010101"/>
<path transform="translate(177,458)" d="m0 0h226l1 1v106l-1 1h-113v2l114 2v107l-1 1h-115l1 2 70 1h39l6 1v71l-1 38h-115l-1 52 1 65-3 1-84 1h-23l-2-1-1-6-1-19v-378l1-46z" fill="#010101"/>
<path transform="translate(860,793)" d="m0 0h104v128l-1 224v110h-107l-1-69v-224l1-154 1-14zm48 110v1h21v-1zm-35 1m9 0m-12 240v1h35v-1z" fill="#FD0F18"/>
<path transform="translate(971,793)" d="m0 0h105v108 3 36l-1 205 1 107-1 2-39 1h-67l-1-1-1-85 1-25-1-46v-55l1-136 1-4v-104zm19 110 4 1zm7 0m71 241v1h5v-1z" fill="#FD0F18"/>
<path transform="translate(1669,345)" d="m0 0h84l5 1v108l-8 1-92-1h-341l-13-1-1-1v-60l1-40 2-6h332zm-32 44v23h1v-23zm0 37 1 2z" fill="#FD0F18"/>
<path transform="translate(290,345)" d="m0 0h126l173 1h151l1 1-1 106-11 1h-194l-131-1-37 1-74 1-5-1v-82l1-26zm114 49v54h1v-54z" fill="#FD0F18"/>
<path transform="translate(1755,908)" d="m0 0 3 1 1 7v30l-1 187-1 1-14 1h-101l2 4 1 28v80l-2 1-30 1h-75l-9-1-1-10-2-53v-41l1-1h6l1-5 2-1 16-1 54-1 36-2 2-1v-23l-1-34-1-61v-81l1-19 1-2 4-1 71-1 26-1zm-218 234v1h33v-1z" fill="#010101"/>
<path transform="translate(1197,793)" d="m0 0h102l2 4-1 103-1 3 1 1v35l-1 203-1 1h-106l-1-5v-134l1-99 1-2-1-2v-68l1-39z" fill="#FD0F18"/>
<path transform="translate(1084,793)" d="m0 0h103l1 1v71l-1 38 1 1-1 239-59 1h-47l-1-1v-224l1-16v-103l1-6z" fill="#FD0F18"/>
<path transform="translate(1368,232)" d="m0 0h275l2 1v108l-1 1h-337l-3-2 1-98 1-8 1-1z" fill="#010101"/>
<path transform="translate(403,232)" d="m0 0h325l12 1v108l-4 1h-333l-2-5v-96l1-8z" fill="#010101"/>
<path transform="translate(1511,902)" d="m0 0h9l3 1v238l-2 1h-105l-2-6v-155l1-77 1-1z" fill="#FD0F18"/>
<path transform="translate(1306,903)" d="m0 0h105l1 1-1 237-1 1-106 1-1-1v-189l1-49z" fill="#FD0F18"/>
<path transform="translate(288,908)" d="m0 0 36 2 71 3 3 2 1 16v179l1 22 2 3-1 1h-111l-2-2-1-23v-188z" fill="#010101"/>
<path transform="translate(1527,570)" d="m0 0h228v108h-229v-106z" fill="#FD0F18"/>
<path transform="translate(1628,458)" d="m0 0h50l70 1 7 2v104l-8 1h-220l-1-1v-54l1-43 2-9z" fill="#FC0E17"/>
<path transform="translate(1416,1143)" d="m0 0h107l1 1 1 53 2 43 4 16 1 56v48l-1 1-10 1h-99l-4-1-1-4-1-29-1-67 1-4 3-1 76-1 25-1h-103l-2-1-1-40v-67z" fill="#010101"/>
<path transform="translate(1308,1256)" d="m0 0h104l1 6v29l1 49 1 14 2 12v2l1 1 1 59v45l-5 2h-107l-1-1-1-14-1-88 3-3 91-1 13-1-1-1h-104l-2-1-1-41v-64l1-3z" fill="#010101"/>
<path transform="translate(407,458)" d="m0 0h118l105 1-1 42-1 64-1 1h-221l-1-5v-100z" fill="#FDFDFD"/>
<path transform="translate(632,682)" d="m0 0h219l1 1v105l-1 3-220-1v-106z" fill="#FD0F18"/>
<path transform="translate(633,570)" d="m0 0h219v106l-1 2h-218l-2-2v-23l1-82z" fill="#FD0F18"/>
<path transform="translate(720,458)" d="m0 0h132l1 1v46l-1 60-1 1h-111l-108-1v-72l1-25 2-9z" fill="#FD0F18"/>
<path transform="translate(1669,345)" d="m0 0h84l5 1v108l-8 1-92-1-11-2-3-6-1-8-1-19v-65l-4-1-2 1-62-2-42-1h-213l-5 2-2 4-2 7-1 78-2 7-3 2-1-3v-56l1-40 2-6h332z" fill="#020202"/>
<path transform="translate(1642,1133)" d="m0 0m-13 1h13l2 5 1 28v80l-2 1-30 1h-75l-9-1-1-10-2-53v-41l1-1h6l1-5 2-1 16-1 54-1zm-92 8v1h33v-1z" fill="#020202"/>
<path transform="translate(403,1134)" d="m0 0h16l72 3 14 1 5 1 1 3 5 2 1 3-1 72-1 30-1 1h-103l-9-1-1-2v-68l1-40z" fill="#020202"/>
<path transform="translate(288,680)" d="m0 0 71 1h39l6 1v71l-1 38h-116v-60z" fill="#FD0F18"/>
<path transform="translate(517,1247)" d="m0 0 23 1 59 2 23 2 1 2h-86l87 2 4 1 1 5-2 100-1 1h-108l-3-1-2-9v-20l2-77 1-8z" fill="#010101"/>
<path transform="translate(290,569)" d="m0 0h55l59 1v107l-1 1h-114v-40z" fill="#FD0F18"/>
<path transform="translate(967,1705)" d="m0 0 63 1h32l15-1 2 3 1 69v36l-2 1-14 1h-93l-4-2-1-12v-80z" fill="#020202"/>
<path transform="translate(290,345)" d="m0 0h121l-3 2h-5l-1 15-2 75-2 12-7 3-5 1-19 1-74 1-5-1v-82l1-26z" fill="#010101"/>
<path transform="translate(311,458)" d="m0 0h92l1 1v106l-1 1h-107l-6-1 1-103 2-2z" fill="#FD0F18"/>
<path transform="translate(630,1366)" d="m0 0 7 1 103 2 1 5-1 37-1 64-2 1h-105l-4-1-1-3v-96l1-8z" fill="#010101"/>
<path transform="translate(407,682)" d="m0 0h110v42l-1 66-56 1h-53l-2-1v-41l1-66z" fill="#FD1019"/>
<path transform="translate(407,570)" d="m0 0h112l-1 34-1 74h-111l-1-1 1-106z" fill="#FDFDFD"/>
<path transform="translate(1184,1593)" d="m0 0h7l1 1 1 34v71l-4 2h-106l-1-1-1-25v-80l1-1z" fill="#010101"/>
<path transform="translate(1299,1480)" d="m0 0 5 1 1 1 1 39v65l-4 2h-107l-1-3-1-31v-71l1-1 86-1z" fill="#010101"/>
<path transform="translate(1388,1143)" d="m0 0h22l1 1 1 109-3 1h-105l-1-1v-108l1-1z" fill="#FD0F18"/>
<path transform="translate(1416,1143)" d="m0 0h107l1 1 1 53 2 43 1 7-2 1-42 2-45 1-14 1 3 2h-11l-2-1-1-40v-67z" fill="#FD0F18"/>
<path transform="translate(1309,682)" d="m0 0h103l1 5-1 103-1 1h-106l-1-1v-106z" fill="#FD0F18"/>
<path transform="translate(1259,1144)" d="m0 0h40v109l-1 1h-105l-1-1-1-37v-65l1-6z" fill="#FD0F18"/>
<path transform="translate(1310,570)" d="m0 0h102l1 1-1 107-45 1h-58l-5-1-1-5v-100l1-2z" fill="#FD0F18"/>
<path transform="translate(521,682)" d="m0 0h107v22l-1 86-1 1h-102l-5-2v-85l1-20z" fill="#FD0F18"/>
<path transform="translate(741,1480)" d="m0 0 110 2v102l-1 4-102 1-7-2-1-14v-71z" fill="#030202"/>
<path transform="translate(1308,1256)" d="m0 0h104l1 6v29l1 49 1 14 1 6-19 2-17 1-33 1-16 1v1h-25l-2-1-1-41v-64l1-3z" fill="#FD0F18"/>
<path transform="translate(854,1592)" d="m0 0 25 1 84 1v42l-1 64-1 1-103 1-4-1-1-3v-99z" fill="#010101"/>
<path transform="translate(1203,1256)" d="m0 0h96l1 1v108l-2 1h-104l-2-1v-107l1-1z" fill="#FD0F18"/>
<path transform="translate(1195,1369)" d="m0 0h105l1 61 1 31 1 6v11h-108l-2-1-1-19v-86z" fill="#FD0F18"/>
<path transform="translate(1165,1144)" d="m0 0h21l1 1v109l-104 1-3-3v-106l1-1z" fill="#FD0F18"/>
<path transform="translate(1196,682)" d="m0 0h104v106l-1 3h-106l-1-2v-94l1-12z" fill="#FD0F18"/>
<path transform="translate(1353,793)" d="m0 0h59l1 1-1 74-1 33-2 1h-104l-1-1v-84l1-23z" fill="#FD0F18"/>
<path transform="translate(1310,458)" d="m0 0 103 1-1 106-1 1h-107l-1-1v-100l1-6z" fill="#FD0F18"/>
<path transform="translate(1417,793)" d="m0 0h106l1 1-1 106-1 1-42 1h-64l-1-1v-50l1-55z" fill="#FD0F18"/>
<path transform="translate(1135,458)" d="m0 0h52l1 2-1 30v75l-1 1-59 1-33 1h-15l-1-1v-65l1-42 1-1z" fill="#010101"/>
<path transform="translate(971,1257)" d="m0 0h105v107l-1 2h-106l-1-12v-89l1-7z" fill="#FD0F18"/>
<path transform="translate(1417,682)" d="m0 0h106l1 1-1 107-6 1h-100l-1-1v-106z" fill="#FD0F18"/>
<path transform="translate(1169,1256)" d="m0 0h18l1 1-1 108-1 1h-105l-1-30v-59l1-20z" fill="#FD0F18"/>
<path transform="translate(897,1257)" d="m0 0h66v109h-106l-1-1v-107z" fill="#FD0F18"/>
<path transform="translate(860,570)" d="m0 0h106l-1 61-1 47-84 1-23-1v-102l1-5z" fill="#FD0F18"/>
<path transform="translate(861,458)" d="m0 0h35l65 1 5 1 1 29v21l-1 56-5 1-103-1-1-1v-21l1-69 1-15z" fill="#020202"/>
<path transform="translate(1419,459)" d="m0 0h106v21l-1 85-2 1h-106l-1-1v-51l1-40 2-14z" fill="#FD0F18"/>
<path transform="translate(1420,570)" d="m0 0h103l1 1v41l-1 66-86 1-21-1v-106z" fill="#FD0F18"/>
<path transform="translate(540,570)" d="m0 0h88l1 1-1 71v34l-1 2h-107l-1-1 1-75 1-23 1-7 1-1z" fill="#FD0F18"/>
<path transform="translate(1084,682)" d="m0 0h103l1 1v28l-1 79-1 1h-104l-1-1v-107z" fill="#FD0F18"/>
<path transform="translate(861,682)" d="m0 0h103v106l-1 2-62 1h-42l-2-1-1-56 1-49 1-2z" fill="#FD0F18"/>
<path transform="translate(1198,570)" d="m0 0h100l1 1v107l-58 1h-44l-5-2v-101l1-5z" fill="#FD0F18"/>
<path transform="translate(1219,345)" d="m0 0h81l-1 37v70l-1 1-37 1-69 1-1-2 1-104 1-3z" fill="#010101"/>
<path transform="translate(969,1594)" d="m0 0h106l1 1 1 106-3 1-105-1-1-1v-88z" fill="#FD0F18"/>
<path transform="translate(1135,570)" d="m0 0h52l1 2-1 106h-106l-1-1-1-58v-48z" fill="#FD0F18"/>
<path transform="translate(746,346)" d="m0 0h100l7 1v106h-107l-1-1v-103z" fill="#010101"/>
<path transform="translate(971,682)" d="m0 0h104l1 1v106l-1 1-69 1h-36l-1-1v-101z" fill="#FD0F18"/>
<path transform="translate(969,1370)" d="m0 0h107l-1 107-1 1h-104l-2-4v-77z" fill="#FD0F18"/>
<path transform="translate(747,1369)" d="m0 0h39l65 1v107h-108l-1-1v-15l2-65 1-19z" fill="#FD0F18"/>
<path transform="translate(1086,1369)" d="m0 0h101l1 3-1 105-5 1h-100l-1-1v-106z" fill="#FD0F18"/>
<path transform="translate(857,1370)" d="m0 0h106l1 2-1 105-1 1h-49l-56-1-1-1v-104z" fill="#FD0F18"/>
<path transform="translate(1081,1482)" d="m0 0h107l1 83 1 25-109-1z" fill="#FD0F18"/>
<path transform="translate(1275,458)" d="m0 0h23l1 1v50l-1 57h-105l-1-1-1-33v-52l1-21z" fill="#FD0F18"/>
<path transform="translate(969,1482)" d="m0 0h106v107h-106l-1-3v-93z" fill="#FD0F18"/>
<path transform="translate(857,1482)" d="m0 0h106v106l-1 1h-106l-1-3 1-96z" fill="#FD0F18"/>
<path transform="translate(972,571)" d="m0 0h100l3 2v105h-105l-1-4 1-89 1-13z" fill="#020202"/>
<path transform="translate(1192,459)" d="m0 0h90v1l-40 5-29 1-6 2-6 4-4 4-1 8-1 67-2 6h-1l-1-25v-52z" fill="#040404"/>
<path transform="translate(724,346)" d="m0 0h16l1 1-1 105-4-2-2-8-2-35-1-58-11-1z" fill="#040404"/>
<path transform="translate(830,458)" d="m0 0h22l1 1v46l-1 57-3-4-2-18-1-37v-36l-1-1-48-6v-1z" fill="#020202"/>
<path transform="translate(623,459)" d="m0 0h7l-1 42-1 64-1 1h-5z" fill="#FD0F18"/>
<path transform="translate(1527,1143)" d="m0 0h5v65l1 19v19l-4 2-1-10-2-53v-41z" fill="#FD0F18"/>
<path transform="translate(511,1143)" d="m0 0 5 1 1 3-1 72-1 28-3-1-1-20z" fill="#FD0F18"/>
<path transform="translate(514,570)" d="m0 0h5l-1 34-1 74h-4v-106z" fill="#FD0F18"/>
<path transform="translate(911,570)" d="m0 0h55l-1 48h-1l-1-28-1-9-10-2-61-7v-1z" fill="#050505"/>
<path transform="translate(856,1582)" d="m0 0 31 2 72 2 3 1v2h-106l-1-3z" fill="#010101"/>
<path transform="translate(968,1642)" d="m0 0h1l2 48 1 8h51l31-1 23-2v6l-3 1-105-1-1-1z" fill="#020202"/>
<path transform="translate(401,458)" d="m0 0 3 1v106l-4 1v-93z" fill="#FDFDFD"/>
<path transform="translate(1178,1583)" d="m0 0h12v7l-109-1 4-2 48-2z" fill="#030303"/>
<path transform="translate(624,1257)" d="m0 0h4l1 5-2 98h-2l-1-6z" fill="#FD0F18"/>
<path transform="translate(1419,1256)" d="m0 0 1 2v69l1 31-3 2-1-3-1-29-1-67 1-4z" fill="#FD0F18"/>
<path transform="translate(400,570)" d="m0 0h4v107l-2 1-1-6z" fill="#FDFDFD"/>
<path transform="translate(988,682)" d="m0 0h74l-2 2-12 3-14 1h-12l-22-2-12-3z" fill="#010101"/>
<path transform="translate(736,1369)" d="m0 0 5 1-1 41-1 63h-1l-1-7z" fill="#FD0F18"/>
<path transform="translate(1408,1360)" d="m0 0h8l1 6-4 1-3-1-93-1v-1l63-2z" fill="#050505"/>
<path transform="translate(1307,1369)" d="m0 0 2 1-1 2v100h-2l-1-12-1-88z" fill="#FD1019"/>
<path transform="translate(629,1360)" d="m0 0 13 1 90 3v1h-102z" fill="#010101"/>
<path transform="translate(1079,571)" d="m0 0h65v1l-12 1-32 1-9 1-11 9h-1z" fill="#020202"/>
<path transform="translate(1194,1482)" d="m0 0h2l-1 16v43l1 40-2 1-1-28v-71z" fill="#FD0F18"/>
<path transform="translate(1297,1473)" d="m0 0h6v5l-45-1v-1l29-2z" fill="#0C0C0C"/>
<path transform="translate(742,1474)" d="m0 0 17 1 38 1v1h-54z" fill="#010101"/>
<path transform="translate(969,665)" d="m0 0 2 1 6 12h-7l-1-4z" fill="#FD0F18"/>
</svg>
